# xmcd
#
# Track frame offsets:
#	150
#	11977
#	24908
#	34821
#	46303
#	58942
#	71464
#	81664
#	92967
#	102772
#	112392
#	122135
#	135671
#	146776
#	156399
#	164699
#	176764
#	189595
#	198527
#	209666
#
# Disc length: 2973 seconds
#
# Revision: 2
# Processed by: cddbd v1.5.2PL0 Copyright (c) Steve Scherf et al.
# Submitted via: audiograbber 1.83.01
#
DISCID=3d0b9b14
DTITLE=Varius - Rock 'n' Roll and Petticoats CD2
DYEAR=2009
DGENRE=Blues
TTITLE0=The Drifters - Sweets For My Sweet
TTITLE1=The Tremeloes - Here Comes My Baby
TTITLE2=Betty Everett - The Shoop Shoop Song
TTITLE3=Del Shanon - Runaway
TTITLE4=Robert Knight - Everlasting love
TTITLE5=Fontella Bass - Rescure Me
TTITLE6=Lesley Gore - Its´s My Party
TTITLE7=Danny and The Juniors - Rock And Rollers Is Here To Stay
TTITLE8=The Marcels - Blue Moon
TTITLE9=Jan and Dean - Fun, Fun, Fun
TTITLE10=Jewel Akens - The Birds And The Bees
TTITLE11=Trini Lopez - If I Had A Hammer
TTITLE12=Fabian - Tiger
TTITLE13=The Diamonds - Little Darling
TTITLE14=The Chiffons - He´s So Fine
TTITLE15=The Elegants - Litle Star
TTITLE16=The Crew-Cuts - Sh-Boom
TTITLE17=Wayne Fontana - A Groovy Kind Of Love
TTITLE18=Paul and Paula - Hey Paula
TTITLE19=Ben E. King - Stand By Me
EXTD=
EXTT0=
EXTT1=
EXTT2=
EXTT3=
EXTT4=
EXTT5=
EXTT6=
EXTT7=
EXTT8=
EXTT9=
EXTT10=
EXTT11=
EXTT12=
EXTT13=
EXTT14=
EXTT15=
EXTT16=
EXTT17=
EXTT18=
EXTT19=
PLAYORDER=
